<?xml version="1.0" encoding="UTF-8" standalone="no"?><!DOCTYPE svg PUBLIC "-//W3C//DTD SVG 1.1//EN" "http://www.w3.org/Graphics/SVG/1.1/DTD/svg11.dtd"><svg width="100%" height="100%" viewBox="0 0 67 67" version="1.1" xmlns="http://www.w3.org/2000/svg" xmlns:xlink="http://www.w3.org/1999/xlink" xml:space="preserve" xmlns:serif="http://www.serif.com/" style="fill-rule:evenodd;clip-rule:evenodd;stroke-linejoin:round;stroke-miterlimit:2;"><path d="M4.167,47.917c-0,1.143 0.94,2.083 2.083,2.083l49.138,0l-13.113,13.108c-0.391,0.391 -0.611,0.922 -0.611,1.475c0,1.145 0.942,2.086 2.086,2.086c0.553,0 1.084,-0.22 1.475,-0.611l16.667,-16.666c0.391,-0.391 0.612,-0.922 0.612,-1.475c-0,-0.554 -0.221,-1.085 -0.612,-1.475l-16.667,-16.667c-0.391,-0.391 -0.922,-0.611 -1.475,-0.611c-1.144,0 -2.086,0.942 -2.086,2.086c0,0.553 0.22,1.084 0.611,1.475l13.113,13.108l-49.138,0c-1.143,0 -2.083,0.941 -2.083,2.084m58.333,-29.167c0,1.143 -0.94,2.083 -2.083,2.083l-49.138,0l13.113,13.109c0.391,0.391 0.611,0.922 0.611,1.475c-0,1.144 -0.942,2.086 -2.086,2.086c-0.553,-0 -1.084,-0.22 -1.475,-0.611l-16.667,-16.667c-0.392,-0.391 -0.612,-0.922 -0.612,-1.475c-0,-0.553 0.22,-1.084 0.612,-1.475l16.667,-16.667c0.391,-0.391 0.922,-0.611 1.475,-0.611c1.144,0 2.086,0.942 2.086,2.086c-0,0.553 -0.22,1.084 -0.611,1.475l-13.113,13.109l49.138,-0c1.143,-0 2.083,0.94 2.083,2.083" style="fill:#fff;"/></svg>