<?xml version="1.0" encoding="UTF-8" standalone="no"?><!DOCTYPE svg PUBLIC "-//W3C//DTD SVG 1.1//EN" "http://www.w3.org/Graphics/SVG/1.1/DTD/svg11.dtd"><svg width="100%" height="100%" viewBox="0 0 264 264" version="1.1" xmlns="http://www.w3.org/2000/svg" xmlns:xlink="http://www.w3.org/1999/xlink" xml:space="preserve" xmlns:serif="http://www.serif.com/" style="fill-rule:evenodd;clip-rule:evenodd;stroke-linejoin:round;stroke-miterlimit:2;"><path d="M8.198,86.352c5.135,-12.816 10.585,-24.54 24.437,-40.847c15.3,-18.013 38.506,-32.881 59.104,-39.238c78.764,-24.304 147.123,25.777 165.8,86.618c17.632,57.433 -5.179,112.47 -47.287,144.215c-51.924,39.144 -126.353,35.93 -175.342,-16.585c-17.72,-18.995 -28.931,-43.684 -32.759,-64.952c-6.023,-33.464 2.106,-58.174 6.047,-69.211Zm227.572,46.627c0.106,0.695 -0.219,1.672 1.382,1.05c4.201,-1.633 12.027,2.695 11.182,-6.86c-0.309,-3.491 -3.512,-4.692 -3.727,-3.514c-0.484,2.656 1.014,2.318 1.269,3.86c0.54,3.248 -2.05,3.291 -2.371,1.944c-0.105,-0.443 -0.913,-8.787 -6.356,-6.306c-2.319,1.057 -2.672,4.721 -0.594,7.035c0.654,0.731 -0.34,0.974 -0.404,1.012c-0.615,0.372 -0.383,1.71 -0.381,1.779Zm1.934,-4.683c-0.007,-0.149 -0.077,-1.389 0.377,-1.823c2.265,-2.155 4.122,3.455 3.046,3.864c-2.419,0.922 -3.321,-1.739 -3.423,-2.041Zm-209.799,-40.306c-0.253,0.023 -0.509,-0.007 -0.762,0.015c-6.438,0.599 -7.806,8.709 -2.631,11.743c9.16,5.37 15.756,-9.987 3.393,-11.758Zm-3.641,6.096c0.565,-4.883 6.947,-2.724 7.461,0.012c0.863,4.6 -6.857,4.865 -7.461,-0.012Zm172.328,-46.333c-0.481,1.852 -0.741,2.147 0.806,3.308c0.247,0.186 1.327,1.412 1.842,0.75c0.118,-0.151 1.214,-5.486 2.742,-11.757c1.316,-5.411 1.597,-5.68 0.956,-6.236c-2.378,-2.066 -3.107,-1.561 -3.345,-1.397c-5.388,3.726 -5.347,3.734 -10.753,7.417c-1.549,1.053 -3.544,2.222 -3.202,2.792c0.012,0.022 2.092,1.797 2.862,1.487c1.595,-0.64 2.027,-2.583 4.088,-1.179c1.666,1.134 1.638,1.127 3.285,2.264c1.636,1.129 0.837,1.861 0.719,2.551Zm1.832,-7.323c-0.558,2.026 -0.369,2.286 -0.902,2.321c-0.25,0.016 -0.288,0.019 -2.62,-1.709c-1.305,-0.969 -0.09,-1.236 3.471,-4.017c0.314,-0.248 0.332,-0.213 0.721,-0.149c0.286,0.046 0.197,0.195 -0.67,3.554Zm-86.859,198.541c0.802,-0.025 1.15,-0.193 1.093,0.604c-0.008,0.091 -1.135,7.858 -1.233,8.542c-0.191,1.313 -0.932,2.517 2.068,2.637c1.02,0.041 0.877,-1.397 1.946,-8.455c1.037,-6.843 1.571,-7.829 0.365,-8.019c-1.742,-0.274 -1.741,0.048 -2.416,0.941c-1.706,2.257 -3.832,0.046 -4.379,2.828c-0.322,1.649 1.488,1.049 2.556,0.922Zm29.333,8.026c-0.003,0.018 -0.281,2.568 -2.106,2.79c-1.706,0.207 -1.928,-1.593 -2.743,-1.576c-0.199,0.004 -2.299,0.049 -2.397,0.689c-0.551,3.569 11.382,7.791 10.648,-5.828c-0.708,-13.14 -14.624,-7.227 -10.672,0.83c1.461,2.98 5.019,3.232 6.682,1.844c0.04,-0.033 0.388,-0.323 0.616,-0.148c0.337,0.256 0.134,0.34 -0.028,1.399Zm-0.458,-7.466c1.511,5.878 -4.016,5.442 -4.228,1.976c-0.211,-3.473 2.481,-4.704 4.228,-1.976Zm7.213,-1.27c-0.85,0.482 -1.102,0.483 -0.969,2.074c0.227,2.696 3.712,-2.25 4.027,0.422c0.547,4.643 1.132,9.986 1.639,10.178c0.298,0.113 2.89,0.26 2.744,-1.243c-0.57,-5.826 -1.772,-13.599 -1.953,-14.777c-0.072,-0.458 -1.862,-1.751 -2.883,0.697c-0.81,1.94 -2.564,2.624 -2.605,2.649Zm-120.345,-106.818c0.011,-0.184 0.12,-1.993 -0.231,-2.289c-0.346,-0.289 -2.799,-1.293 -2.947,-1.396c-0.4,-0.278 -0.603,-0.419 0.119,-6.085c0.197,-1.544 3.84,-0.732 4.11,-2.681c0.251,-1.806 0.578,-2.88 -1.238,-2.382c-1.244,0.339 -11.666,3.19 -15.477,4.504c-0.947,0.327 -0.911,3.221 -0.772,3.669c0.234,0.753 9.111,4.505 15.168,7.648c1.563,0.81 1.235,-0.786 1.268,-0.988Zm-8.766,-6.171c-2.956,-1.391 -3.094,-1.309 -3.119,-1.614c-0.036,-0.425 0.09,-0.576 5.089,-1.608c0.698,-0.143 0.947,0.533 0.487,3.581c-0.144,0.956 -2.373,-0.321 -2.457,-0.359Zm25.352,-55.734c4.352,3.189 6.709,-2.1 6.876,-3.475c0.075,-0.62 -0.217,-1.079 0.868,-1.068c0.944,0.012 2.797,-2.017 1.841,-2.622c-1.026,-0.65 -1.13,-0.421 -2.135,-1.109c-2.88,-1.972 -6.783,-8.092 -11.259,-1.72c-2.624,3.736 -0.819,6.33 0.156,5.574c1.962,-1.52 1.349,-1.894 1.366,-2.932c0.035,-2.21 5.01,-3.885 2.875,0.305c-1.553,3.049 -2.823,4.379 -0.588,7.047Zm1.827,-5.049c0.106,-0.237 1.014,-2.858 1.89,-2.119c3.479,2.932 -0.068,5.81 -1.7,4.361c-0.94,-0.833 -0.449,-1.019 -0.19,-2.242Zm75.501,173.118c-1.145,3.699 0.492,3.498 1.008,5.053c0.245,0.738 -3.446,1.812 -2.16,6.265c1.479,5.119 12.292,4.484 10.839,-2.716c-0.458,-2.262 -2.559,-2.192 -1.19,-3.624c3.469,-3.626 -0.954,-8.924 -6.158,-7.031c-1.779,0.648 -2.05,1.596 -2.339,2.053Zm4.714,0.18c4.674,1.02 0.165,6.15 -1.6,3.384c-0.085,-0.137 -0.622,-0.978 -0.362,-1.99c0.289,-1.124 1.771,-1.363 1.962,-1.394Zm-2.557,8.076c1.482,-2.444 4.047,-1.395 4.366,0.733c0.567,3.781 -5.54,4.842 -4.366,-0.733Zm91.33,-177.751c8.645,-7.172 8.929,-7.423 8.512,-8.275c-0.917,-1.876 -1.867,-1.417 -2.041,-1.331c-1.154,0.559 -0.459,-0.531 -0.803,-1.744c-2.141,-7.575 -14.475,-1.189 -11.408,5.344c1.302,2.778 3.97,2.359 4.11,2.802c0.053,0.167 0.14,0.446 -1.587,1.498c-1.915,1.167 -3.721,-1.29 -3.732,-2.284c-0.011,-1.214 0.065,-1.299 -1.339,-3.067c-1.042,-1.314 -3.868,1.958 0.021,6.21c4.242,4.641 6.88,1.879 8.267,0.847Zm3.583,-10.272c1.56,5.858 -8,6.487 -6.341,1.636c0.688,-2.009 4.549,-4.941 6.341,-1.636Zm-1.19,42.032c-1.842,-4.799 -12.578,-32.755 -42.243,-48.396c-58.49,-30.844 -124.457,7.076 -133.389,67.497c-9.094,61.515 47.801,117.504 112.883,101.209c45.656,-11.432 83.79,-62.991 62.749,-120.31Zm-70.783,-2.503c-9.058,29.587 -12.951,37.644 -14.116,43.027c-0.386,1.79 -1.048,-0.365 -1.075,-0.454c-0.548,-1.784 -10.788,-32.55 -11.73,-35.378c-1.96,-5.893 -2.5,-9.584 -2.809,-7.375c-0.147,1.048 0.152,1.044 0.185,13.234c0.021,7.784 0.256,96.464 -0.057,97.31c-0.176,0.476 -0.816,0.344 -0.889,0.329c-2.2,-0.452 -8.29,-2.01 -8.796,-2.504c-0.318,-0.311 -0.286,-0.391 -0.285,-28.614c0.002,-9.462 0.008,-117.959 0.031,-118.273c0.049,-0.704 0.127,-1.107 8.302,-2.964c1.52,-0.345 1.985,-0.769 2.501,0.707c11.409,32.648 12.721,36.82 13.738,40.052c0.027,0.089 0.524,1.068 1.053,-0.509c0.386,-1.147 14.484,-39.894 14.554,-40.012c0.563,-0.958 9.334,1.538 9.661,2.384c0.337,0.872 0.153,133.105 0.135,144.68c-0.001,1.904 0.578,2.488 -1.235,3.054c-8.125,2.534 -8.511,2.377 -8.728,1.699c-0.016,-0.047 -0.226,-104.474 0.101,-109.002c0.07,-0.974 0.431,-1.499 -0.541,-1.391Zm-81.392,-5.582c5.258,-8.311 14.129,-21.232 35.014,-31.02c0.07,-0.033 1.848,-1.061 1.895,-0.141c0.1,1.915 0.032,48.677 0.026,52.91c-0.081,55.663 0.136,89.459 -0.169,89.727c-0.57,0.505 -9.314,-4.064 -9.692,-4.869c-0.354,-0.753 -0.089,-39.384 -0.149,-44.411c-0.014,-1.217 -0.669,-0.985 -10.26,-0.983c-13.584,0.003 -14.474,-0.52 -14.242,0.597c0.855,4.121 6.282,13.616 6.929,14.747c0.982,1.718 0.13,10.482 0.552,15.202c0.137,1.523 -1.406,-0.213 -1.487,-0.304c-19.878,-22.375 -27.641,-58.71 -8.417,-91.455Zm-1.008,45.107c0.427,3.842 0.347,6.113 1.726,6.158c4.405,0.146 22.903,0.021 24.895,0.008c1.06,-0.008 1.298,-0.067 1.304,-1.122c0.029,-5.101 -0.082,-60.886 0.072,-64.174c0.052,-1.12 -1.082,-0.585 -5.283,3.073c-21.551,18.765 -23.871,44.604 -22.714,56.057Zm132.767,-48.22c2.23,3.54 21.409,31.098 8.653,68.833c-5.062,14.976 -14.207,24.602 -15.5,26.158c-0.982,1.184 -1.152,0.348 -1.168,0.254c-0.158,-0.95 0.072,-0.952 0.088,-12.031c0.006,-4.486 1.066,-4.203 3.183,-8.24c0.168,-0.321 4.445,-8.763 3.836,-9.524c-0.272,-0.338 -0.378,-0.167 -21.988,-0.205c-1.45,-0.003 -2.137,-0.278 -2.152,1.628c-0.14,17.702 0.011,37.582 0.035,40.85c0.026,3.327 -1.077,2.88 -4.013,4.46c-0.429,0.232 -4.827,2.599 -5.542,2.566c-0.486,-0.022 -0.489,-0.72 -0.489,-0.794c-0.202,-40.843 0.006,-128.493 0.031,-139.667c0.007,-2.404 -0.114,-2.452 0.116,-2.684c0.634,-0.642 12.254,5.284 19.746,11.692c3.109,2.66 3.225,2.509 7.834,7.327c3.537,3.697 6.801,8.585 7.33,9.377Zm1.401,27.937c-0.723,-3.181 -4.813,-21.218 -20.532,-35.227c-5.208,-4.641 -5.755,-4.519 -5.945,-3.979c-0.058,0.16 0.043,6.755 0.052,7.343c0.052,3.494 -0.119,58.288 0.073,58.798c0.205,0.548 0.458,0.403 19.949,0.422c6.258,0.005 6.96,0.385 7.219,-1.283c1.989,-12.802 0.351,-20.337 -0.816,-26.074Zm-18.696,-79.67c2.357,-6.255 4.334,-8.812 1.66,-10.782c-5.566,-4.096 -9.721,-0.711 -7.956,0.507c1.796,1.241 2.127,0.507 2.697,0.262c0.792,-0.338 2.811,0.313 3.113,1.396c0.696,2.51 -3.609,1.053 -3.987,0.988c-6.574,-1.151 -6.053,4.567 -4.142,6.303c2.111,1.918 4.925,0.978 4.947,0.98c0.534,0.05 0.129,1.501 2.731,2.274c0.735,0.219 0.87,-1.514 0.937,-1.928Zm-3.669,-5.397c1.324,0.238 2.587,0.233 1.377,2.112c-2.09,3.244 -6.215,-0.931 -3.277,-2.111c0.343,-0.136 1.747,-0.016 1.9,-0.001Zm-62.942,-15.227c0.097,-0.059 0.192,-0.118 0.287,-0.178c0.111,0.033 0.212,-0.161 0.321,-0.127c0.497,0.15 -0.183,0.486 1.11,6.528c0.918,4.291 0.89,6.372 2.105,6.181c0.184,-0.03 1.982,-0.313 2.184,-0.805c0.086,-0.208 -3.051,-15.901 -3.433,-16.201c-0.268,-0.211 -4.812,0.156 -4.941,1.46c-0.221,2.214 -0.513,10.529 -0.653,10.689c-0.719,0.826 -0.63,-0.259 -2.647,-4.393c-2.61,-5.35 -2.589,-5.653 -3.349,-5.577c-0.006,0.002 -4.08,0.718 -4.253,0.866c-0.454,0.386 -0.327,0.702 2.514,14.784c0.03,0.151 0.337,1.673 0.624,1.812c0.466,0.227 2.788,-0.151 2.855,-1.056c0.003,-0.049 -1.555,-8.572 -2.299,-10.897c-0.033,-0.1 -0.432,-1.349 0.191,-1.298c0.758,0.06 0.186,0.626 3.982,8.629c0.972,2.052 1.375,3.563 2.584,3.369c1.171,-0.189 2.376,-0.184 2.448,-1.367c0.626,-10.313 0.184,-10.321 0.37,-12.419Zm12.918,-4.262c-0.05,0.392 -0.331,0.731 -0.38,1.123c-0.075,0.6 1.457,0.956 2.39,-0.168c0.145,-0.173 0.739,-1.05 1.567,-1.917c1.308,-1.371 -0.548,-1.069 -2.157,-0.949c-0.285,0.021 -0.278,0 -0.49,0.159c-0.432,0.324 -0.325,0.397 -0.93,1.752Zm-67.49,24.881c-0.678,-0.589 -0.954,-1.086 -2.623,0.416c-1.032,0.929 0.923,3.117 1.773,2.491c1.507,-1.112 1.977,-1.422 0.85,-2.907Zm-13.552,38.488c0.432,-0.918 0.768,-0.922 0.418,-1.602c-0.037,-0.072 -7.994,-5.448 -9.079,-6.045c-2.096,-1.154 -2.616,2.028 -2.418,2.292c0.512,0.681 0.648,0.527 8.848,5.933c1.188,0.785 1.449,0.601 2.231,-0.578Zm194.513,15.226c-1.291,0.613 -0.261,1.25 -0.788,1.89c-1.151,1.396 -10.929,1.418 -8.019,7.297c0.097,0.195 0.907,1.833 2.666,0.624c1,-0.685 -1.018,-1.773 0.637,-2.548c5.769,-2.697 6.22,-1.874 6.476,-1.408c0.094,0.169 1.183,2.15 2.422,0.246c0.488,-0.75 -0.943,-1.711 0.481,-2.253c2.635,-1 2.675,-0.933 2.786,-1.14c0.428,-0.796 -1.996,-2.406 -2.765,-2.217c-1.051,0.257 -1.401,0.872 -2.16,-0.45c-0.511,-0.889 -0.742,-0.309 -1.736,-0.041Zm-30.342,-40.828c0.416,-0.06 0.948,-0.327 1.928,0.291c0.607,0.381 0.661,2.063 2.993,0.264c0.867,-0.669 -0.154,-3.311 -3.005,-2.899c-1.363,0.195 -0.104,-1.001 -0.496,-1.557c-1.394,-1.971 -2.373,-0.916 -2.516,-0.762c-0.57,0.613 -5.116,5.507 -6.993,7.772c-0.709,0.856 0.916,1.958 1.14,2.15c1.705,1.469 3.147,-3.437 6.949,-5.259Zm-125.397,-16.768c-0.178,-0.513 -1.7,-3.105 0.161,-4.647c3.292,-2.727 5.004,4.992 6.336,7.227c0.117,0.198 0.588,0.988 2.843,-0.437c0.545,-0.345 0.559,-0.658 -2.802,-7.543c-2.348,-4.809 -7.183,-2.813 -8.282,0.368c-0.258,0.749 -0.568,0.344 -1.003,-0.317c-0.462,-0.699 -2.593,0.511 -2.685,1.004c-0.1,0.538 4.706,10.667 4.874,10.772c0.341,0.214 2.057,-0.555 2.225,-0.629c1.173,-0.526 0.483,-1.05 -1.667,-5.798Zm134.486,37.351c-1.522,7.902 7.527,9.111 6.728,6.981c-1.05,-2.792 -2.038,-1.752 -2.974,-2.416c-2.42,-1.718 -0.098,-5.924 0.953,-4.114c3.53,6.085 3.841,6.061 4.424,5.953c2.298,-0.425 6.304,-7.042 0.383,-10.656c-1.91,-1.166 -4.236,-0.46 -4.589,-0.354c-3.112,0.942 -4.686,4.122 -4.925,4.606Zm7.984,-1.896c3.987,1.342 1.169,5.446 0.049,4.155c-0.174,-0.203 -0.009,-0.311 -1.828,-2.8c-1.031,-1.412 1.601,-1.358 1.779,-1.355Zm-176.182,-19.535c-0.286,0.592 -2.101,3.105 0.516,6.874c4.756,6.851 13.858,1.109 11.209,-4.984c-0.514,-1.182 -3.162,0.353 -2.858,1.612c1.25,5.177 -5.305,3.919 -6.638,-0.383c-0.564,-1.818 1.211,-3.589 2.801,-3.125c1.573,0.459 1.514,-0.089 2.56,-1.314c1.133,-1.325 -1.66,-2.039 -2.955,-1.884c-2.61,0.312 -4.376,2.834 -4.635,3.204Zm185.182,36.577c-2.491,2.531 -8.633,3.206 -7.809,5.029c0.073,0.164 0.82,1.819 1.177,1.887c0.057,0.011 9.001,-3.038 9.884,-5.715c0.769,-2.328 -0.476,-4.911 -2.971,-5.805c-1.058,-0.38 0.376,-1.031 0.435,-1.263c0.052,-0.206 -0.477,-2.854 -1.866,-2.215c-9.931,4.555 -10.42,4.439 -10.299,5.359c0.017,0.135 0.856,1.736 0.967,1.875c1.183,1.517 9.36,-6.094 10.813,-0.727c0.223,0.823 0.01,0.797 -0.331,1.575Zm-205.059,-19.483c-0.774,1.227 -0.305,1.38 0.892,2.179c0.838,0.56 1.312,0.036 2.168,-1.43c0.63,-1.08 -1.6,-2.911 -2.593,-1.475c-0.164,0.236 -0.304,0.489 -0.467,0.726Zm122.145,-36.062c0.256,-0.033 0.513,0.127 0.77,0.094c0.566,-0.075 0.729,-1.169 2.521,-11.071c0.384,-2.125 -2.923,-1.725 -3.11,-1.126c-0.067,0.215 -2.125,10.987 -2.103,11.215c0.095,0.998 0.553,0.563 1.922,0.888Zm8.447,-2.836c0.605,-6.784 5.006,-5.059 5.571,-3.107c0.417,1.44 0.841,1.097 2.334,1.266c1.609,0.182 0.748,-3.206 -1.147,-4.4c-7.87,-4.963 -12.216,5.235 -9.273,9.303c3.355,4.639 9.635,2.331 10.008,0.047c0.123,-0.752 -1.501,-1.305 -1.941,-1.485c-1.015,-0.411 -1.03,0.904 -2.266,1.247c-3.062,0.852 -3.264,-2.522 -3.286,-2.871Zm-132.366,81.317c-0.338,3.035 -1.565,2.241 -2.421,3.169c-0.166,0.179 -1.281,3.437 0.665,2.86c1.141,-0.337 2.743,-0.584 3.886,-4.106c2.006,-6.178 -4.394,-10.729 -7.637,-3.445c-0.484,1.088 -1.195,3.393 -2.483,2.769c-0.923,-0.448 -0.492,-3.083 0.414,-3.626c1.267,-0.757 1.183,-0.938 1.291,-2.693c0.116,-1.888 -4.748,-0.062 -4.722,5.451c0.02,4.246 4.768,5.771 6.831,2.256c0.925,-1.577 2.446,-5.753 3.846,-4.06c0.492,0.596 0.284,0.661 0.33,1.425Zm93.042,-86.359c0.175,1.072 0.316,6.786 7.155,6.122c3.185,-0.309 5.334,-3.769 3.487,-4.038c-1.396,-0.203 -1.643,-0.626 -2.489,0.491c-2.513,3.318 -6.506,-2.036 -3.706,-2.141c6.047,-0.226 7.392,0.452 7.132,-1.625c-1.042,-8.267 -9.676,-6.487 -11.08,-2.341c-0.704,2.08 -0.501,3.064 -0.499,3.532Zm3.548,-2.77c1.797,-4.033 5.812,-0.097 4.56,1.001c-0.335,0.295 -0.382,0.146 -2.498,0.197c-1.555,0.035 -2.317,0.327 -2.062,-1.198Zm-97.244,61.109c0.474,7.937 12.88,8.946 13.271,0.777c0.132,-2.74 -1.824,-5.405 -2.9,-3.785c-1.141,1.715 -0.704,1.868 -0.243,2.672c0.899,1.567 -0.383,5.706 -5.775,2.33c-2.273,-1.424 -1.85,-4.653 0.406,-4.859c0.645,-0.059 1.478,0.283 2.096,-2.168c0.303,-1.198 -2.646,-1.29 -4.452,-0.073c-2.12,1.426 -2.368,4.657 -2.403,5.106Zm221.356,20.248c-0.086,-0.313 0.114,-2.493 -2.583,-1.461c-1.234,0.472 -0.246,3.316 0.751,3.162c2.13,-0.33 1.913,-0.886 1.832,-1.701Zm-5.72,7.075c-9.433,1.562 -9.519,1.628 -9.603,1.902c-0.033,0.112 -0.098,2.912 1.42,2.689c3.153,-0.462 9.508,-2.449 9.632,1.544c0.124,3.944 -10.01,1.678 -9.7,4.284c0.21,1.773 0.254,2.322 2.03,2.052c6.073,-0.928 10.527,-0.924 10.395,-5.168c-0.011,-0.328 -0.085,-2.729 -1.647,-3.728c-0.068,-0.045 -0.931,-0.594 -0.54,-0.875c0.226,-0.162 1.345,0.211 0.929,-1.585c-0.425,-1.843 -1.038,-1.436 -2.916,-1.115Zm-174.56,-77.101c0.362,-2.503 0.508,-2.481 0.492,-2.7c-0.016,-0.222 -0.306,-0.569 -2.537,1.161c-0.932,0.723 -0.211,3.915 0.369,3.901c1.24,-0.033 1.633,-2.135 1.676,-2.362Zm86.616,-17.851c-1.462,-0.179 -1.535,-0.397 -1.885,-0.016c-0.267,0.289 -0.454,1.746 -0.475,1.9c-0.16,1.237 2.931,1.666 3.183,0.796c0.837,-2.894 -0.719,-2.645 -0.823,-2.68Zm-88.592,34.494c-0.226,-0.278 -4.226,-5.356 -5.364,-6.703c-1.087,-1.285 -3.559,0.874 -2.706,1.955c3.099,3.923 3.127,3.879 6.164,7.829c1.142,1.487 1.587,0.95 2.956,-0.313c0.796,-0.735 0.014,-1.421 -1.05,-2.768Zm167.986,58.515c4.735,-1.364 9.503,-2.516 9.754,-2.76c0.34,-0.332 -0.082,-2.364 -0.47,-2.748c-0.656,-0.655 -0.824,-0.154 -11.264,2.659c-1.339,0.36 -0.058,2.944 0.084,3.049c0.429,0.318 0.478,0.099 1.896,-0.2Zm-91.065,-78.319c0.194,0.104 0.388,0.207 0.58,0.31c0.466,1.635 2.867,0.828 2.869,0.826c0.413,-0.395 1.691,-16.31 1.582,-16.645c-0.21,-0.647 -2.489,-0.666 -2.747,-0.588c-0.94,0.287 -0.636,5.001 -0.967,5.345c-0.595,0.617 -0.659,0.087 -1.347,-0.434c-2.416,-1.825 -5.943,-0.529 -7.189,1.968c-2.855,5.719 1.797,13.181 7.219,9.218Zm0.906,-5.405c-0.051,0.328 -0.038,3.045 -2.098,3.773c-5.066,1.79 -4.337,-10.34 0.808,-7.27c1.255,0.751 1.285,3.199 1.29,3.497Zm-78.831,16.721c0.957,10.575 14.336,8 12.903,-0.763c-1.176,-7.19 -12.32,-7.273 -12.903,0.763Zm3.331,-0.007c0.02,-4.347 4.454,-3.972 5.961,-1.062c2.715,5.241 -4.665,7.698 -5.961,1.062Z" style="fill:#fff;"/></svg>