<?xml version="1.0" encoding="UTF-8" standalone="no"?><!DOCTYPE svg PUBLIC "-//W3C//DTD SVG 1.1//EN" "http://www.w3.org/Graphics/SVG/1.1/DTD/svg11.dtd"><svg width="100%" height="100%" viewBox="0 0 649 193" version="1.1" xmlns="http://www.w3.org/2000/svg" xmlns:xlink="http://www.w3.org/1999/xlink" xml:space="preserve" xmlns:serif="http://www.serif.com/" style="fill-rule:evenodd;clip-rule:evenodd;stroke-linejoin:round;stroke-miterlimit:2;"><g><path d="M190.475,82.906c-1.746,-6.252 -2.515,-10.805 -11.385,-22.746c-5.941,-7.999 -13.562,-13.041 -14.925,-13.943c-54.707,-36.193 -112.732,8.102 -110.654,53.465c0.48,10.461 4.368,19.238 6.161,21.705c0.094,0.128 3.453,4.749 -0.171,1.977c-0.312,-0.238 -22.236,-14.074 -33.506,-38.375c-8.533,-18.397 -8.731,-30.442 -9.225,-39.841c-0.121,-2.295 -0.176,-5.323 14.618,-19.738c31.701,-30.888 94.172,-38.892 135.39,6.097c16.064,17.535 20.684,34.252 24.622,49.574c0.285,1.115 0.039,2.311 -0.074,2.309c-0.078,-0.002 -0.062,-0.036 -0.851,-0.484Z" style="fill:#fff;"/><path d="M130.627,40.32c6.363,1.299 11.187,1.919 9.929,3.048c-2.222,1.995 -18.731,8.191 -35.011,31.225c-1.462,2.069 -12.583,20.309 -10.572,24.337c1.34,2.684 4.948,2.763 6.416,-1.087c0.576,-1.511 4.522,-17.047 19.592,-12.094c14.935,4.908 15.119,41.126 -15.94,49.299c-21.823,5.743 -52.668,-13.241 -43.055,-50.141c4.082,-15.665 18.616,-38.269 48.102,-43.863c6.014,-1.141 9.203,-1.647 20.539,-0.724Z" style="fill:#fff;"/><path d="M0.782,84.32c0.348,-2.484 2.271,-16.233 8.846,-30.072c0.524,-1.103 1.282,-0.774 1.322,0.475c0.477,14.929 8.747,42.594 31.303,63.453c23.257,21.507 50.231,26.034 60.21,24.069c1.314,-0.259 1.625,0.655 0.831,1.19c-5.147,3.466 -21.274,13.073 -39.967,15.199c-2.916,0.331 -20.792,2.365 -36.611,-2.306c-6.097,-1.8 -6.923,-1.097 -10.54,-6.828c-8.038,-12.738 -19.245,-34.706 -15.394,-65.18Z" style="fill:#fff;"/><path d="M603.272,98.686c-2.344,0.353 -2.389,0.231 -2.528,0.38c-0.721,0.772 0.073,33.952 -0.444,35.347c-0.514,1.382 -11.05,0.595 -11.133,0.528c-0.645,-0.512 -0.536,-0.708 -0.529,-26.932c0.016,-58.591 -0.125,-58.906 0.648,-59.319c1.116,-0.595 31.15,-0.149 33.86,-0.109c12.207,0.182 20.813,10.139 21.522,21.615c1.403,22.724 -13.167,25.684 -14.22,27.085c-0.453,0.603 -0.177,1.021 10.889,23.444c6.61,13.392 7.004,13.454 6.595,14.035c-0.55,0.783 -0.753,0.492 -11.961,0.371c-2.263,-0.024 -1.717,-1.081 -8.066,-13.782c-5.329,-10.66 -4.795,-10.885 -10.096,-21.566c-0.87,-1.749 -3.758,-0.856 -14.537,-1.097Zm17.307,-11.476c0.755,-0.083 6.374,-0.705 8.716,-3.803c0.478,-0.632 3.331,-4.403 3.172,-9.395c-0.452,-14.316 -7.758,-13.976 -17.011,-13.981c-14.118,-0.007 -14.758,-0.216 -14.983,1.128c-0.015,0.087 -0.034,24.882 0.01,25.097c0.249,1.161 0.805,1.03 20.096,0.954Z" style="fill:#fff;"/><path d="M136.508,113.373c0.1,0.058 0.441,-0.35 0.627,0.363c10.039,38.459 -10.364,73.442 -13.485,74.547c-0.94,0.333 -49.375,18.176 -92.782,-21.533c-8.593,-7.861 8.938,4.081 40.101,-2.56c41.935,-8.938 61.831,-38.337 65,-50.323l0.539,-0.494Z" style="fill:#fff;"/><path d="M473.099,101.302c-8.661,-0.065 -9.466,-0.029 -10.289,0.008c-1.958,0.087 -1.431,2.075 -1.424,9.906c0.018,23.117 0.05,23.297 -0.504,23.677c-0.009,0.006 -10.611,1.098 -11.279,-0.648c-0.182,-0.478 -0.08,-55.404 -0.07,-60.222c0.045,-24.3 -0.466,-25.161 1.145,-25.416c0.241,-0.038 29.661,-0.08 32.022,0.029c9.798,0.451 17.731,6.714 20.349,14.545c0.522,1.558 3.724,11.142 0.986,20.508c-5.898,20.172 -23.386,17.528 -30.936,17.613Zm-6.414,-11.59c1.027,0.021 3.142,0.063 12.827,0.001c16.724,-0.109 15.264,-20.532 9.443,-26.424c-3.681,-3.725 -9.698,-3.218 -10.728,-3.219c-16.065,-0.02 -16.75,-0.209 -16.877,1.099c-0.182,1.877 0.027,24.81 0.046,26.967c0.02,2.124 2.201,1.621 5.289,1.576Z" style="fill:#fff;"/><path d="M359.594,135.145c-2.465,-0.056 -2.552,0.201 -3.152,-0.287c-1.387,-1.13 -5.587,-17.737 -7.199,-18.256c-0.637,-0.205 -5.171,-0.055 -26.843,-0.104c-1.635,-0.003 -4.835,-0.848 -5.681,1.798c-5.136,16.059 -5.064,16.516 -6.476,16.792c-0.377,0.074 -10.937,0.029 -10.964,0.025c-2.07,-0.342 -0.558,-1.559 10.391,-32.842c7.838,-22.398 7.927,-22.347 8.552,-24.312c1.74,-5.483 8.557,-24.272 9.321,-26.376c0.855,-2.358 0.705,-2.984 3.193,-3.003c6.564,-0.049 7.872,-0.758 8.89,2.386c2.697,8.322 29.429,83.296 29.424,83.335c-0.177,1.116 -2.592,0.816 -9.456,0.844Zm-18.596,-30.132c0.361,-0.001 4.324,-0.008 4.516,-0.165c0.629,-0.513 0.461,-0.631 0.181,-1.386c-1.587,-4.265 -5.935,-18.284 -6.43,-19.881c-0.412,-1.331 -5.085,-16.404 -5.342,-16.576c-0.888,-0.596 -1.191,2.209 -1.484,3.093c-3.846,11.646 -4.63,14.462 -4.76,14.874c-0.056,0.18 -6.228,18.698 -6.155,19.24c0.134,0.982 0.669,0.796 19.474,0.801Z" style="fill:#fff;"/><path d="M145.766,149.016c4.938,-39.065 -14.15,-62.321 -13.188,-63.461c0.43,-0.509 4.686,0.755 5.081,0.872c4.83,1.435 28.934,7.769 49.826,34.59c0.22,0.283 1.537,0.487 -1.599,8.824c-9.591,25.489 -29.144,42.679 -41.898,49.745c-7.701,4.267 -10.182,5.663 -8.931,3.43c7.353,-13.13 10.256,-31.184 10.709,-34Z" style="fill:#fff;"/><path d="M535.299,60.107c-2.849,0.112 -2.86,-0.001 -3.074,0.121c-0.592,0.338 -0.589,4.429 -0.589,4.817c0.013,20.044 -0.075,20.165 0.373,20.607c0.834,0.822 33.315,-0.101 34.09,0.524c0.975,0.786 0.477,10.624 0.386,10.809c-0.288,0.577 -3.911,0.585 -4.254,0.586c-28.189,0.061 -30.022,-0.455 -30.534,0.878c-0.098,0.256 -0.054,23.655 -0.054,23.657c0.248,1.918 1.169,1.421 13.275,1.425c27.113,0.011 27.111,0.238 27.118,0.243c0.625,0.489 0.719,0.624 0.573,9.892c-0.021,1.307 -0.789,1.401 -1.385,1.445c-1.207,0.088 -43.079,0.017 -46.826,0.011c-3.209,-0.006 -4.721,1.105 -4.727,-2.102c-0.009,-6.672 -0.11,-81.052 0.048,-83.402c0.093,-1.392 3.353,-1.052 9.168,-1.052c42.883,0 43.092,-0.017 43.395,0.558c0.291,0.548 0.181,9.872 0.12,10.125c-0.254,1.074 -0.805,0.809 -37.103,0.858Z" style="fill:#fff;"/><path d="M246.474,72.096c1.162,18.804 27.833,8.564 39.896,23.825c4.677,5.917 9.53,28.188 -8.702,36.775c-16.091,7.579 -38.62,0.806 -45.504,-6.273c-1.134,-1.165 -0.786,-1.615 4.019,-8.985c1.942,-2.977 2.619,-0.616 6.835,1.88c17.177,10.167 38.743,4.697 35.359,-11.356c-3.845,-18.229 -46.105,-0.87 -43.65,-37.772c1.817,-27.336 39.179,-26.42 52.877,-14.561c1.703,1.475 0.423,1.846 -3.167,8.058c-1.169,2.025 -1.394,2.983 -3.288,1.638c-16.582,-11.776 -33.708,-5.282 -34.607,5.468c-0.036,0.433 -0.032,0.87 -0.068,1.303Z" style="fill:#fff;"/><path d="M377.261,99.031c0.016,-22.868 -1.726,-34.736 10.681,-45.372c5.169,-4.43 21.074,-10.682 34.981,-0.583c7.207,5.236 12.841,19.082 10.979,20.101c-0.237,0.13 -10.462,0.094 -10.794,0.037c-1.844,-0.312 -1.165,-1.09 -2.227,-3.56c-5.061,-11.772 -21.469,-14.877 -28.796,-2.168c-3.168,5.492 -3.017,11.113 -3.015,14.873c0.004,25.112 -0.166,25.209 1.887,31.443c1.726,5.246 7.342,9.383 11.017,9.958c14.98,2.344 17.927,-8.372 20.011,-12.436c0.416,-0.811 0.604,-1.174 11.36,-0.806c3.277,0.112 -2.622,10.819 -3.088,11.665c-10.057,18.251 -30.9,13.395 -33.41,12.573c-22.289,-7.297 -19.638,-32.571 -19.586,-35.725Z" style="fill:#fff;"/><path d="M186.734,97.083c0.581,11.276 -0.031,11.824 -0.932,11.59c-0.304,-0.079 -3.392,-4.196 -12.763,-11.633c-19.108,-15.166 -42.601,-21.277 -58.42,-19.297c-1.809,0.227 -2.962,1.254 -2.647,-0.537c0.067,-0.38 6.01,-7.767 8.742,-10.558c11.42,-11.671 27.969,-21.12 30.98,-19.904c10.945,4.421 19.266,14.189 20.612,15.77c13.797,16.195 14.208,32.52 14.428,34.569Z" style="fill:#fff;"/></g></svg>