<?xml version="1.0" encoding="UTF-8" standalone="no"?><!DOCTYPE svg PUBLIC "-//W3C//DTD SVG 1.1//EN" "http://www.w3.org/Graphics/SVG/1.1/DTD/svg11.dtd"><svg width="100%" height="100%" viewBox="0 0 609 178" version="1.1" xmlns="http://www.w3.org/2000/svg" xmlns:xlink="http://www.w3.org/1999/xlink" xml:space="preserve" xmlns:serif="http://www.serif.com/" style="fill-rule:evenodd;clip-rule:evenodd;stroke-linejoin:round;stroke-miterlimit:2;"><g><path d="M515.116,86.295c-6.04,5.132 -9.987,3.742 -8.87,5.917c0.193,0.377 14.111,1.184 16.662,17.72c2.155,13.972 -9.001,20.382 -10.655,21.332c-8.916,5.122 -14.74,3.567 -38.762,3.871c-8.56,0.108 -9.894,0.289 -9.831,-2.264c0.234,-9.435 -0.27,-80.157 0.162,-80.941c0.434,-0.787 0.723,-0.56 27.186,-0.679c5.981,-0.027 20.675,-1.594 27.708,11.595c1.025,1.926 5.879,14.426 -3.6,23.449Zm-7.131,12.047c-3.97,-2.301 -4.069,-2.001 -8.507,-3.008c-2.582,-0.586 -26.55,-0.467 -26.577,-0.46c-1.604,0.37 -1.097,1.172 -1.173,31.956c-0.007,2.729 3.06,2.046 7.2,2.023c19.243,-0.107 19.402,0.54 26.625,-1.898c2.363,-0.799 8.429,-5.326 9.026,-9.785c0.92,-6.879 1.471,-13.318 -6.594,-18.828Zm-6.159,-11.001c13.409,-3.79 11.239,-17.631 10.598,-19.19c-4.459,-10.832 -12.103,-11.025 -25.041,-10.754c-13.873,0.291 -15.601,-1.183 -15.65,1.788c-0.036,2.222 -0.397,24.035 -0.014,27.777c0.239,2.328 1.443,1.665 21.101,1.51c4.586,-0.037 4.54,-0.175 9.006,-1.131Z" style="fill:#fff;"/><path d="M73.056,1.436c6.694,-0.563 17.525,-2.76 18.238,-0.281c0.137,0.475 0.095,43.337 -0.01,45.971c-0.064,1.597 -1.434,1.369 -5.583,1.537c-1.641,0.067 -19.06,0.775 -20.498,1.108c-4.803,1.113 -4.837,0.64 -9.715,1.419c-31.947,5.101 -45.61,16.267 -48.855,18.919c-3.974,3.248 -7.105,10.562 -6.574,4.172c0.106,-1.28 0.751,-9.419 1.015,-10.287c1.879,-6.197 3.389,-17.104 14.846,-31.166c20.685,-25.387 51.497,-30.756 57.136,-31.392Z" style="fill:#fff;"/><path d="M188.381,102.1l0.614,0.571c-0.446,10.765 -1.702,41.521 -41.822,63.76c-13.977,7.748 -34.004,11.176 -45.758,11.523c-2.412,0.071 -2.05,-1.191 -2.029,-13.071c0.058,-33.676 -0.198,-33.755 0.207,-34.435c1.031,-1.73 18.495,-0.874 23.54,-2.041c6.881,-1.591 10.878,-1.059 13.868,-1.858c6.674,-1.784 6.722,-1.382 7.29,-1.565c0.423,-0.136 0.505,-0.162 5.397,-1.347c0.996,-0.242 6.723,-1.629 12.219,-3.842c27.471,-11.058 23.351,-17.487 25.84,-17.832c0.214,-0.03 0.419,0.167 0.634,0.137Z" style="fill:#fff;"/><path d="M440.745,58.701c12.493,13.939 3.833,29.512 -0.733,33.431c-8.589,7.369 -17.16,7.032 -34.775,6.883c-2.362,-0.02 -5.785,-0.89 -5.828,1.85c-0.071,4.681 0.512,32.403 -0.44,33.652c-0.684,0.895 -0.919,0.471 -5.807,0.593c-2.874,0.072 -1.429,-1.816 -1.76,-37.272c-0.186,-20.187 -0.024,-41.119 0.005,-44.695c0.019,-2.383 1.306,-1.748 15.642,-1.859c16.094,-0.125 24.464,-1.479 33.696,7.417Zm-7.141,3.526c-2.313,-1.711 -2.255,-1.771 -4.871,-2.912c-2.038,-0.89 -5.244,-2.288 -27.732,-2.023c-1.859,0.022 -1.564,3.306 -1.558,9.742c0.009,10.292 0.002,10.257 -0.025,20.536c-0.01,3.512 -0.71,4.965 2.802,4.97c17.48,0.026 18.339,-0.018 19.931,-0.098c1.735,-0.088 14.364,-0.727 16.613,-13.979c1.74,-10.251 -4.131,-15.343 -5.16,-16.236Z" style="fill:#fff;"/><path d="M536.771,129.806c0.492,-1.653 7.914,-20.517 8.615,-22.297c1.047,-2.662 12.466,-31.682 12.971,-33.328c1.055,-3.433 2.686,-6.588 3.091,-7.821c0.173,-0.522 1.846,-5.599 2.261,-6.489c1.667,-3.576 1.28,-3.696 2.711,-7.377c0.483,-1.243 1.967,-1.108 7.942,-1.119c2.382,-0.005 2.3,0.807 6.689,12.016c0.758,1.938 8.34,21.297 9.4,24.253c3.741,10.427 18.174,45.403 17.73,47.036c-0.139,0.512 -0.308,0.642 -6.617,0.483c-3.133,-0.079 -6.744,-19.505 -9.645,-20.54c-0.402,-0.143 -39.611,-0.051 -39.92,0.007c-2.755,0.522 -4.009,8.274 -8.307,18.292c-1.617,3.774 -2.994,1.842 -6.178,2.148c-3.698,0.356 -1.989,-1.786 -0.743,-5.264Zm38.433,-61.031c-0.841,-3.636 -1.275,-3.472 -2.287,-7.087c-0.502,-1.793 -1.923,-2.278 -2.323,-0.769c-1.232,4.649 -1.298,4.594 -2.968,9.104c-4.774,12.89 -4.917,12.809 -5.325,13.93c-3.047,8.393 -6.811,17.827 -6.868,18.037c-1.011,3.646 -3.117,5.883 -1.047,6.267c0.797,0.148 31.18,0.087 33.891,0.081c2.779,-0.006 0.639,-3.098 0.587,-3.253c-3.133,-9.132 -9.701,-25.626 -9.798,-25.923c-3.155,-9.725 -3.594,-9.542 -3.862,-10.387Z" style="fill:#fff;"/><path d="M65.197,151.483c-1.716,-0.403 -1.708,-0.387 -1.853,-0.435c-10.67,-3.501 -27.072,-9.51 -43.354,-26.737c-16.412,-17.365 -20.076,-36.587 -18.256,-40.975c9.157,-22.075 47.488,-26.59 59.815,-28.396c0.392,-0.057 3.528,-1.553 4.73,-0.989c3.448,1.617 -7.288,2.578 -15.425,8.496c-30.086,21.882 -26.52,60.25 -0.964,78.536c18.449,13.201 33.178,9.726 34.321,12.564c1.021,2.533 -8.101,-0.052 -11.827,-0.465c-3.684,-0.408 -3.562,-0.841 -7.187,-1.599Z" style="fill:#fff;"/><path d="M142.305,39.489c-17.422,-14.236 -34.484,-12.562 -35.927,-14.22c-0.808,-0.929 0.089,-2.244 3.478,-1.525c8.304,1.762 16.189,2.52 28.961,8.365c40.935,18.734 49.908,53.977 48.764,60.263c-2.892,15.897 -23.096,23.067 -38.448,27.214c-6.034,1.631 -19.491,3.158 -21.736,4.273c-1.416,0.703 -4.162,0.701 -4.28,-0.029c-0.441,-2.724 14.43,-1.759 28.373,-21.203c2.883,-4.022 5.829,-11.276 5.884,-11.493c1.141,-4.479 1.263,-4.4 1.343,-4.79c2.349,-11.377 0.34,-18.448 -0.161,-21.68c-0.346,-2.234 -0.741,-2.09 -1.023,-3.049c-3.352,-11.416 -13.633,-20.687 -15.228,-22.126Z" style="fill:#fff;"/><path d="M288.652,93.006c0.061,-3.412 0.015,-6.551 0.54,-7.868c2.242,-5.61 1.246,-10.588 10.057,-20.778c14.645,-16.934 43.591,-19.03 61.709,-4.948c5.425,4.215 11.617,13.928 10.303,15.347c-0.707,0.765 -0.878,0.387 -4.077,0.396c-1.016,0.003 -2.032,0.026 -3.047,0.011c-4.188,-0.061 -0.478,-7.425 -16.272,-15.402c-6.924,-3.498 -33.883,-8.504 -46.701,15.027c-0.258,0.474 -2.152,3.951 -2.718,6.166c-2.104,8.245 -1.83,12.185 -1.755,13.252c1.962,28.067 23.132,32.962 25.809,33.783c8.209,2.52 18.376,0.901 19.27,0.512c2.389,-1.038 2.483,-0.698 4.857,-1.721c12.526,-5.396 15.262,-14.272 15.935,-15.527c0.798,-1.488 8.09,-1.13 8.606,-0.513c1.163,1.389 -4.152,12.986 -15.642,19.418c-9.492,5.313 -16.452,6.234 -30.644,5.296c-3.942,-0.261 -4.157,-1 -6,-1.454c-5.813,-1.434 -12.943,-5.674 -16.159,-8.563c-11.828,-10.621 -12.622,-21.868 -12.885,-22.764c-1.385,-4.704 -1.064,-4.752 -1.186,-9.67Z" style="fill:#fff;"/><path d="M240.326,135.373c-14.48,-2.455 -21.27,-14.608 -21.533,-22.436c-0.08,-2.354 6.902,-1.71 7.577,-1.104c1.261,1.133 0.717,1.385 1.187,3.546c2.424,11.183 15.4,17.21 28.531,13.402c12.263,-3.556 11.754,-14.848 11.681,-16.461c-0.745,-16.56 -24.377,-14.162 -38.753,-22.618c-4.492,-2.643 -7.885,-8.257 -8.355,-10.058c-6.934,-26.558 25.918,-35.651 43.306,-25.416c8.668,5.104 11.442,16.017 10.06,17.473c-0.825,0.87 -7.076,0.211 -7.122,0.193c-1.694,-0.65 -1.777,-14.315 -16.313,-15.003c-11.4,-0.54 -14.009,2.024 -15.199,2.674c-7.341,4.011 -9.995,13.631 -5.359,20.784c4.86,7.502 24.934,9.388 30.861,12.62c5.693,3.103 9.813,3.622 13.703,12.795c1.684,3.97 1.899,13.866 -1.936,19.056c-10.526,14.243 -27.994,11.164 -32.336,10.553Z" style="fill:#fff;"/></g></svg>