<?xml version="1.0" encoding="UTF-8" standalone="no"?><!DOCTYPE svg PUBLIC "-//W3C//DTD SVG 1.1//EN" "http://www.w3.org/Graphics/SVG/1.1/DTD/svg11.dtd"><svg width="100%" height="100%" viewBox="0 0 5209 5212" version="1.1" xmlns="http://www.w3.org/2000/svg" xmlns:xlink="http://www.w3.org/1999/xlink" xml:space="preserve" xmlns:serif="http://www.serif.com/" style="fill-rule:evenodd;clip-rule:evenodd;stroke-linejoin:round;stroke-miterlimit:2;"><path d="M5208.07,2606.46c5.263,309.429 -68.47,961.441 -517.204,1557.76c-926.112,1230.69 -2756.04,1448.83 -3942.72,268.383c-800.954,-796.737 -1045.04,-2184.15 -303.612,-3283.33c898.333,-1331.84 2867,-1602.36 4082.59,-299.654c675,723.387 680.088,1606.11 680.954,1756.84Zm-2605.8,2374.97c1606.32,-5.208 2750.16,-1543.18 2265.14,-3102.03c-397.121,-1276.28 -1944.38,-2124.53 -3391.95,-1365.61c-828.366,434.308 -1556.96,1561.04 -1115.85,2875.16c232.5,692.604 982.204,1582.64 2242.65,1592.48Zm76.667,-3819.34c-168.087,20.92 -418.783,56.65 -729.337,265.97c-631.496,425.68 -700.017,1168.68 -670.175,1179.55c1.562,0.555 214.808,4.88 223.108,-2.516c2.154,-1.909 35.05,-611.909 577.342,-981.7c51.216,-34.934 353.387,-240.975 739.22,-232.763c16.717,0.367 20.05,8.804 16.321,208.421c-0.871,46.163 -131.216,-17.533 -434.916,107.467c-368.192,151.541 -630.796,532.583 -663.175,886.162c-2.571,28.229 17.133,16.129 354.2,16.129c2069.31,0 2071.3,-0.695 2076.25,5.709c3.995,5.158 9.479,217.641 -22.567,369.116c-257.604,1217.61 -1869.46,1476.58 -2486.03,370.675c-134.15,-240.625 -151.096,-509.425 -157.329,-514.495c-3.625,-2.967 -228.975,-11.317 -234.529,5.054c-3.942,11.65 2.5,919.775 -3.438,928.696c-7.812,11.77 -222.883,-0.817 -225.904,-236.546c-4.063,-316.75 -0.313,-772.429 0.262,-839.584c7.446,-904.2 731.909,-1751.49 1773.94,-1771.19c38.454,-0.73 23.192,18.541 23.246,56.995c0.242,159.863 3.525,170.296 -15.938,170.955c-64.654,2.187 -63.975,1.545 -140.558,7.9Zm-940.225,1703.63c111.371,769.808 902.05,1171.44 1577.45,853.679c191.388,-90.05 479.513,-315.067 585.379,-700.692c46.913,-170.833 37.642,-179.116 23.25,-182.033c-2.866,-0.571 -2175.47,-0.258 -2176.22,-0.154c-18.734,2.671 -9.742,10.691 -9.863,29.2Z" style="fill:#fff;"/></svg>