<?xml version="1.0" encoding="UTF-8" standalone="no"?>
<!DOCTYPE svg PUBLIC "-//W3C//DTD SVG 1.1//EN" "http://www.w3.org/Graphics/SVG/1.1/DTD/svg11.dtd">
<svg width="100%" height="100%" viewBox="0 0 375 375" version="1.1" xmlns="http://www.w3.org/2000/svg" xmlns:xlink="http://www.w3.org/1999/xlink" xml:space="preserve" xmlns:serif="http://www.serif.com/" style="fill-rule:evenodd;clip-rule:evenodd;stroke-linejoin:round;stroke-miterlimit:2;">
    <g transform="matrix(0.37287,0,0,0.37287,-12.7597,-18.024)">
        <path d="M929.68,551.283C930.472,597.938 919.354,696.245 851.698,786.153C712.065,971.711 436.157,1004.6 257.236,826.62C136.472,706.492 99.672,497.307 211.458,331.578C346.904,130.77 643.729,89.982 827.007,286.397C928.781,395.466 929.549,528.557 929.68,551.283ZM536.792,909.366C778.983,908.583 951.445,676.695 878.315,441.661C818.44,249.229 585.155,121.335 366.897,235.763C242.001,301.244 132.147,471.128 198.657,669.262C233.711,773.69 346.747,907.884 536.792,909.366ZM548.35,333.509C523.006,336.663 485.209,342.05 438.386,373.611C343.172,437.792 332.839,549.818 337.339,551.455C337.575,551.541 369.728,552.191 370.98,551.078C371.303,550.79 376.264,458.816 458.027,403.062C465.75,397.795 511.308,366.729 569.482,367.968C572.003,368.022 572.505,369.295 571.943,399.391C571.813,406.353 552.159,396.749 506.37,415.595C450.856,438.443 411.261,495.896 406.38,549.204C405.991,553.462 408.963,551.636 459.783,551.636C771.782,551.636 772.083,551.533 772.829,552.498C773.43,553.276 774.257,585.312 769.425,608.152C730.587,791.734 487.558,830.781 394.598,664.039C374.372,627.76 371.816,587.231 370.878,586.467C370.329,586.02 336.352,584.761 335.516,587.229C334.922,588.984 335.893,725.908 334.998,727.253C333.818,729.027 301.391,727.129 300.936,691.587C300.325,643.83 300.891,575.126 300.975,565C302.099,428.669 411.329,300.92 568.441,297.948C574.238,297.839 571.938,300.745 571.947,306.542C571.982,330.644 572.478,332.218 569.543,332.318C559.794,332.648 559.896,332.551 548.35,333.509ZM406.59,590.373C423.381,706.44 542.595,766.996 644.428,719.085C673.285,705.509 716.726,671.582 732.689,613.439C739.761,587.681 738.362,586.433 736.192,585.994C735.761,585.907 408.189,585.953 408.075,585.97C405.25,586.373 406.607,587.582 406.59,590.373Z"/>
    </g>
</svg>
