<?xml version="1.0" encoding="UTF-8" standalone="no"?><!DOCTYPE svg PUBLIC "-//W3C//DTD SVG 1.1//EN" "http://www.w3.org/Graphics/SVG/1.1/DTD/svg11.dtd"><svg width="100%" height="100%" viewBox="0 0 10 10" version="1.1" xmlns="http://www.w3.org/2000/svg" xmlns:xlink="http://www.w3.org/1999/xlink" xml:space="preserve" xmlns:serif="http://www.serif.com/" style="fill-rule:evenodd;clip-rule:evenodd;stroke-linejoin:round;stroke-miterlimit:2;"><path d="M4.53,-0l0.642,-0c0.011,0.003 0.021,0.008 0.031,0.009c0.527,0.033 1.034,0.153 1.519,0.36c0.727,0.308 1.339,0.77 1.835,1.384c0.507,0.629 0.835,1.342 0.972,2.139c0.034,0.2 0.048,0.405 0.071,0.607c-0,0.144 -0,0.287 -0,0.431c-0.003,0.011 -0.009,0.022 -0.009,0.033c-0,0.23 -0.036,0.456 -0.08,0.681c-0.136,0.685 -0.414,1.308 -0.827,1.869c-0.364,0.495 -0.809,0.903 -1.333,1.225c-0.6,0.369 -1.252,0.591 -1.952,0.668c-0.426,0.047 -0.851,0.034 -1.275,-0.036c-0.521,-0.085 -1.013,-0.254 -1.478,-0.502c-0.022,-0.012 -0.055,-0.015 -0.078,-0.007c-0.729,0.231 -1.457,0.465 -2.186,0.698c-0.125,0.04 -0.25,0.08 -0.382,0.123c0.009,-0.029 0.014,-0.05 0.021,-0.07c0.27,-0.802 0.541,-1.604 0.811,-2.407c0.011,-0.032 0.016,-0.059 -0.004,-0.093c-0.38,-0.641 -0.594,-1.335 -0.645,-2.078c-0.032,-0.475 0.006,-0.945 0.118,-1.409c0.256,-1.061 0.812,-1.932 1.664,-2.61c0.736,-0.585 1.578,-0.917 2.517,-0.999c0.016,-0.001 0.032,-0.01 0.048,-0.016Zm-3.306,8.471c0.026,-0.007 0.043,-0.011 0.06,-0.017c0.464,-0.148 0.928,-0.297 1.392,-0.446c0.031,-0.01 0.057,-0.015 0.089,0.006c0.868,0.55 1.81,0.742 2.822,0.562c0.886,-0.157 1.628,-0.581 2.227,-1.249c0.537,-0.599 0.859,-1.302 0.964,-2.1c0.086,-0.659 0.014,-1.302 -0.228,-1.922c-0.332,-0.847 -0.889,-1.508 -1.673,-1.97c-0.851,-0.503 -1.771,-0.661 -2.739,-0.47c-1.125,0.222 -1.993,0.834 -2.597,1.808c-0.497,0.802 -0.666,1.679 -0.535,2.613c0.087,0.618 0.318,1.181 0.677,1.691c0.02,0.029 0.025,0.053 0.014,0.087c-0.145,0.424 -0.287,0.848 -0.43,1.272c-0.014,0.042 -0.027,0.084 -0.043,0.135Zm1.307,-4.867c0.006,-0.419 0.142,-0.753 0.428,-1.026c0.091,-0.087 0.185,-0.16 0.315,-0.169c0.054,-0.004 0.11,0.004 0.165,0.007c0.041,0.002 0.083,0.01 0.125,0.007c0.103,-0.007 0.171,0.043 0.21,0.13c0.041,0.09 0.075,0.183 0.11,0.275c0.092,0.247 0.182,0.495 0.276,0.742c0.025,0.067 0.02,0.128 -0.011,0.193c-0.07,0.15 -0.19,0.261 -0.299,0.381c-0.013,0.013 -0.027,0.025 -0.04,0.038c-0.073,0.074 -0.083,0.13 -0.034,0.221c0.123,0.229 0.268,0.444 0.436,0.642c0.297,0.347 0.653,0.616 1.068,0.808c0.045,0.021 0.089,0.047 0.135,0.066c0.073,0.031 0.141,0.022 0.196,-0.04c0.135,-0.153 0.271,-0.305 0.402,-0.461c0.077,-0.091 0.133,-0.118 0.24,-0.067c0.217,0.104 0.43,0.216 0.644,0.326c0.109,0.057 0.216,0.12 0.327,0.176c0.084,0.042 0.121,0.103 0.115,0.2c-0.012,0.169 -0.05,0.332 -0.122,0.484c-0.059,0.127 -0.169,0.214 -0.284,0.291c-0.148,0.1 -0.306,0.177 -0.482,0.215c-0.237,0.05 -0.468,0.041 -0.7,-0.042c-0.36,-0.127 -0.716,-0.259 -1.052,-0.442c-0.351,-0.192 -0.655,-0.446 -0.932,-0.732c-0.296,-0.305 -0.546,-0.645 -0.775,-1.002c-0.15,-0.235 -0.288,-0.475 -0.374,-0.741c-0.054,-0.164 -0.084,-0.333 -0.087,-0.48Z"/></svg>