<?xml version="1.0" encoding="UTF-8" standalone="no"?><!DOCTYPE svg PUBLIC "-//W3C//DTD SVG 1.1//EN" "http://www.w3.org/Graphics/SVG/1.1/DTD/svg11.dtd"><svg width="100%" height="100%" viewBox="0 0 40 41" version="1.1" xmlns="http://www.w3.org/2000/svg" xmlns:xlink="http://www.w3.org/1999/xlink" xml:space="preserve" xmlns:serif="http://www.serif.com/" style="fill-rule:evenodd;clip-rule:evenodd;stroke-linejoin:round;stroke-miterlimit:2;"><path d="M18.873,-0l2.678,-0c0.043,0.013 0.086,0.034 0.13,0.037c2.195,0.139 4.306,0.64 6.328,1.499c3.027,1.286 5.58,3.21 7.645,5.77c2.114,2.62 3.48,5.589 4.05,8.911c0.144,0.835 0.2,1.685 0.296,2.529c-0,0.599 -0,1.198 -0,1.797c-0.013,0.046 -0.037,0.091 -0.037,0.137c-0.002,0.959 -0.149,1.9 -0.335,2.838c-0.565,2.854 -1.722,5.447 -3.444,7.787c-1.518,2.063 -3.372,3.763 -5.554,5.104c-2.503,1.538 -5.218,2.461 -8.134,2.782c-1.775,0.195 -3.546,0.143 -5.312,-0.147c-2.171,-0.358 -4.22,-1.061 -6.16,-2.096c-0.089,-0.048 -0.228,-0.06 -0.325,-0.029c-3.037,0.966 -6.071,1.939 -9.106,2.911c-0.521,0.167 -1.041,0.333 -1.593,0.51c0.036,-0.12 0.06,-0.205 0.088,-0.288c1.126,-3.343 2.252,-6.687 3.38,-10.029c0.045,-0.135 0.065,-0.247 -0.02,-0.39c-1.583,-2.672 -2.472,-5.562 -2.684,-8.657c-0.136,-1.98 0.023,-3.939 0.49,-5.871c1.066,-4.42 3.385,-8.05 6.934,-10.874c3.067,-2.441 6.574,-3.823 10.485,-4.163c0.068,-0.006 0.134,-0.045 0.2,-0.068Zm-13.772,35.294c0.106,-0.028 0.177,-0.045 0.247,-0.067c1.935,-0.62 3.87,-1.24 5.804,-1.862c0.129,-0.041 0.236,-0.059 0.37,0.026c3.616,2.294 7.54,3.093 11.757,2.344c3.69,-0.656 6.784,-2.423 9.28,-5.207c2.238,-2.496 3.58,-5.423 4.016,-8.749c0.36,-2.746 0.06,-5.426 -0.952,-8.007c-1.382,-3.529 -3.703,-6.283 -6.967,-8.21c-3.549,-2.096 -7.379,-2.755 -11.413,-1.959c-4.689,0.925 -8.308,3.477 -10.822,7.534c-2.071,3.342 -2.774,6.997 -2.228,10.886c0.362,2.577 1.325,4.922 2.82,7.049c0.085,0.121 0.104,0.219 0.056,0.361c-0.6,1.765 -1.195,3.532 -1.789,5.299c-0.059,0.176 -0.113,0.353 -0.179,0.562Zm5.446,-20.276c0.024,-1.745 0.592,-3.139 1.781,-4.278c0.379,-0.362 0.774,-0.665 1.312,-0.703c0.227,-0.015 0.458,0.016 0.688,0.028c0.174,0.009 0.349,0.042 0.521,0.03c0.43,-0.03 0.712,0.179 0.878,0.544c0.17,0.373 0.311,0.759 0.455,1.144c0.385,1.029 0.761,2.063 1.149,3.092c0.106,0.28 0.084,0.533 -0.043,0.802c-0.294,0.628 -0.794,1.088 -1.247,1.588c-0.052,0.056 -0.111,0.106 -0.165,0.16c-0.306,0.309 -0.347,0.54 -0.143,0.92c0.513,0.955 1.115,1.85 1.819,2.675c1.235,1.448 2.719,2.569 4.447,3.369c0.19,0.088 0.371,0.194 0.563,0.274c0.306,0.128 0.589,0.091 0.817,-0.168c0.562,-0.639 1.13,-1.272 1.677,-1.922c0.317,-0.377 0.551,-0.489 0.998,-0.276c0.904,0.432 1.791,0.9 2.681,1.359c0.458,0.236 0.904,0.498 1.364,0.729c0.353,0.178 0.506,0.434 0.479,0.837c-0.047,0.705 -0.209,1.38 -0.505,2.014c-0.249,0.533 -0.707,0.892 -1.184,1.214c-0.617,0.415 -1.277,0.738 -2.01,0.894c-0.988,0.211 -1.952,0.172 -2.918,-0.171c-1.497,-0.532 -2.984,-1.083 -4.382,-1.845c-1.464,-0.798 -2.727,-1.856 -3.883,-3.048c-1.233,-1.272 -2.277,-2.687 -3.229,-4.178c-0.625,-0.979 -1.199,-1.976 -1.56,-3.084c-0.223,-0.686 -0.35,-1.389 -0.36,-2Z" style="fill:#fff;"/></svg>